<svg xmlns="http://www.w3.org/2000/svg" xmlns:xlink="http://www.w3.org/1999/xlink" width="400" zoomAndPan="magnify" viewBox="0 0 300 44.999999" height="60" preserveAspectRatio="xMidYMid meet" version="1.0"><defs><g/><clipPath id="63f05d7124"><path d="M 153 7 L 161.839844 7 L 161.839844 18 L 153 18 Z M 153 7 " clip-rule="nonzero"/></clipPath><clipPath id="4447c564b2"><path d="M 137.839844 23 L 151 23 L 151 26.34375 L 137.839844 26.34375 Z M 137.839844 23 " clip-rule="nonzero"/></clipPath></defs><g fill="#000000" fill-opacity="1"><g transform="translate(0.00000333333, 33.725307)"><g><path d="M 1.734375 5.3125 C 1.242188 5.3125 0.851562 5.085938 0.5625 4.640625 L 0.390625 4.3125 C -0.242188 2.519531 -0.128906 0.75 0.734375 -1 C 0.910156 -1.300781 1.09375 -1.5 1.28125 -1.59375 C 1.46875 -1.6875 1.726562 -1.734375 2.0625 -1.734375 C 2.40625 -1.617188 2.613281 -1.414062 2.6875 -1.125 C 2.71875 -0.96875 2.675781 -0.863281 2.5625 -0.8125 C 2.457031 -0.757812 2.347656 -0.710938 2.234375 -0.671875 C 1.859375 -0.628906 1.617188 -0.382812 1.515625 0.0625 C 1.210938 1.0625 1.175781 2.140625 1.40625 3.296875 C 1.4375 3.554688 1.582031 3.6875 1.84375 3.6875 C 1.988281 3.6875 2.117188 3.632812 2.234375 3.53125 C 2.460938 3.300781 2.6875 3.046875 2.90625 2.765625 C 3.132812 2.484375 3.378906 2.175781 3.640625 1.84375 C 4.015625 1.363281 4.359375 0.878906 4.671875 0.390625 C 4.984375 -0.0859375 5.289062 -0.570312 5.59375 -1.0625 C 5.894531 -1.550781 6.179688 -2.046875 6.453125 -2.546875 C 6.734375 -3.046875 7.023438 -3.539062 7.328125 -4.03125 L 14.046875 -15.609375 C 14.078125 -15.722656 14.171875 -15.890625 14.328125 -16.109375 C 14.429688 -16.296875 14.484375 -16.503906 14.484375 -16.734375 C 12.804688 -17.441406 11.070312 -17.796875 9.28125 -17.796875 C 8.800781 -17.796875 8.410156 -17.773438 8.109375 -17.734375 C 7.816406 -17.703125 7.460938 -17.59375 7.046875 -17.40625 C 6.117188 -16.957031 6.0625 -16.378906 6.875 -15.671875 C 6.957031 -15.597656 7.035156 -15.5625 7.109375 -15.5625 C 7.109375 -15.5625 7.144531 -15.519531 7.21875 -15.4375 C 7.332031 -15.332031 7.351562 -15.222656 7.28125 -15.109375 C 7.28125 -15.109375 7.25 -15.097656 7.1875 -15.078125 C 7.132812 -15.054688 7.070312 -15.007812 7 -14.9375 C 6.363281 -14.9375 5.878906 -15.234375 5.546875 -15.828125 C 5.242188 -16.503906 5.316406 -17.082031 5.765625 -17.5625 C 6.171875 -18.09375 6.726562 -18.445312 7.4375 -18.625 C 8.144531 -18.8125 8.816406 -18.90625 9.453125 -18.90625 C 9.640625 -18.90625 9.84375 -18.894531 10.0625 -18.875 C 10.289062 -18.863281 10.5 -18.835938 10.6875 -18.796875 C 10.988281 -18.765625 11.304688 -18.71875 11.640625 -18.65625 C 11.972656 -18.601562 12.289062 -18.539062 12.59375 -18.46875 C 12.882812 -18.425781 13.195312 -18.367188 13.53125 -18.296875 C 13.875 -18.222656 14.191406 -18.148438 14.484375 -18.078125 C 14.671875 -18.035156 14.820312 -18.003906 14.9375 -17.984375 C 15.050781 -17.960938 15.125 -17.953125 15.15625 -17.953125 C 15.34375 -17.953125 15.609375 -18.195312 15.953125 -18.6875 C 16.359375 -19.28125 16.753906 -19.863281 17.140625 -20.4375 C 17.535156 -21.019531 17.921875 -21.613281 18.296875 -22.21875 C 18.703125 -22.8125 19.09375 -23.394531 19.46875 -23.96875 C 19.84375 -24.550781 20.21875 -25.140625 20.59375 -25.734375 C 20.851562 -26.148438 21.269531 -26.738281 21.84375 -27.5 C 22.425781 -28.257812 23.070312 -29.0625 23.78125 -29.90625 C 24.488281 -30.75 25.164062 -31.503906 25.8125 -32.171875 C 26.46875 -32.847656 27.019531 -33.296875 27.46875 -33.515625 C 27.769531 -33.585938 27.921875 -33.625 27.921875 -33.625 C 28.398438 -33.625 28.753906 -33.382812 28.984375 -32.90625 C 29.128906 -32.5625 29.191406 -32.222656 29.171875 -31.890625 C 29.160156 -31.554688 29.117188 -31.238281 29.046875 -30.9375 C 28.816406 -29.632812 28.570312 -28.441406 28.3125 -27.359375 C 27.457031 -23.742188 26.679688 -20.160156 25.984375 -16.609375 C 25.296875 -13.066406 24.914062 -9.429688 24.84375 -5.703125 C 24.800781 -4.960938 24.816406 -4.226562 24.890625 -3.5 C 24.972656 -2.769531 25.085938 -2.050781 25.234375 -1.34375 C 25.304688 -1.007812 25.4375 -0.523438 25.625 0.109375 C 25.8125 0.742188 26.070312 1.3125 26.40625 1.8125 C 26.738281 2.320312 27.113281 2.578125 27.53125 2.578125 C 27.71875 2.578125 27.921875 2.519531 28.140625 2.40625 C 28.179688 2.363281 28.273438 2.34375 28.421875 2.34375 C 28.835938 2.34375 29.082031 2.625 29.15625 3.1875 C 29.1875 3.488281 29.128906 3.757812 28.984375 4 C 28.835938 4.238281 28.632812 4.378906 28.375 4.421875 L 28.03125 4.421875 C 27.695312 4.421875 27.398438 4.347656 27.140625 4.203125 C 25.984375 3.671875 25.085938 2.71875 24.453125 1.34375 C 24.117188 0.40625 23.875 -0.546875 23.71875 -1.515625 C 23.570312 -2.484375 23.476562 -3.453125 23.4375 -4.421875 C 23.363281 -5.835938 23.382812 -7.265625 23.5 -8.703125 C 23.613281 -10.140625 23.765625 -11.566406 23.953125 -12.984375 C 23.953125 -13.054688 23.953125 -13.144531 23.953125 -13.25 C 23.953125 -13.363281 23.96875 -13.460938 24 -13.546875 C 24.039062 -13.617188 24.0625 -13.707031 24.0625 -13.8125 C 24.0625 -13.925781 24.0625 -14.019531 24.0625 -14.09375 C 24.132812 -14.539062 23.910156 -14.765625 23.390625 -14.765625 C 22.347656 -14.804688 21.320312 -14.9375 20.3125 -15.15625 C 19.300781 -15.382812 18.3125 -15.648438 17.34375 -15.953125 C 16.96875 -16.054688 16.6875 -16.109375 16.5 -16.109375 C 16.207031 -16.109375 15.894531 -15.8125 15.5625 -15.21875 L 10.1875 -6.09375 C 9.507812 -4.90625 8.832031 -3.738281 8.15625 -2.59375 C 7.488281 -1.457031 6.800781 -0.3125 6.09375 0.84375 C 5.832031 1.25 5.453125 1.804688 4.953125 2.515625 C 4.453125 3.222656 3.910156 3.863281 3.328125 4.4375 C 2.753906 5.019531 2.222656 5.3125 1.734375 5.3125 Z M 22.765625 -16.28125 L 23.171875 -16.28125 C 23.691406 -16.320312 24.023438 -16.394531 24.171875 -16.5 C 24.316406 -16.613281 24.445312 -16.953125 24.5625 -17.515625 C 24.96875 -19.304688 25.375 -21.101562 25.78125 -22.90625 C 26.195312 -24.71875 26.613281 -26.539062 27.03125 -28.375 C 27.132812 -28.78125 27.222656 -29.171875 27.296875 -29.546875 C 27.378906 -29.921875 27.457031 -30.3125 27.53125 -30.71875 C 27.5625 -30.789062 27.578125 -30.898438 27.578125 -31.046875 C 27.578125 -31.128906 27.488281 -31.207031 27.3125 -31.28125 C 27.15625 -31.3125 27.003906 -31.234375 26.859375 -31.046875 C 26.523438 -30.679688 26.1875 -30.320312 25.84375 -29.96875 C 25.507812 -29.613281 25.175781 -29.25 24.84375 -28.875 C 24.175781 -28.195312 23.539062 -27.410156 22.9375 -26.515625 C 22.039062 -25.210938 21.164062 -23.914062 20.3125 -22.625 C 19.457031 -21.34375 18.597656 -20.050781 17.734375 -18.75 C 17.703125 -18.707031 17.664062 -18.65625 17.625 -18.59375 C 17.582031 -18.539062 17.546875 -18.476562 17.515625 -18.40625 C 17.472656 -18.332031 17.425781 -18.257812 17.375 -18.1875 C 17.320312 -18.113281 17.273438 -18.035156 17.234375 -17.953125 C 17.085938 -17.585938 17.195312 -17.367188 17.5625 -17.296875 C 18.425781 -17.023438 19.285156 -16.785156 20.140625 -16.578125 C 21.003906 -16.378906 21.878906 -16.28125 22.765625 -16.28125 Z M 22.765625 -16.28125 "/></g></g></g><g fill="#000000" fill-opacity="1"><g transform="translate(27.746615, 33.725307)"><g><path d="M 7.546875 11.078125 C 7.066406 11.078125 6.675781 10.796875 6.375 10.234375 C 5.894531 9.378906 5.820312 8.539062 6.15625 7.71875 C 6.601562 6.375 7.160156 5.09375 7.828125 3.875 C 8.503906 2.664062 9.234375 1.46875 10.015625 0.28125 C 10.390625 -0.3125 10.648438 -0.984375 10.796875 -1.734375 C 10.867188 -2.367188 10.941406 -2.992188 11.015625 -3.609375 C 11.097656 -4.222656 11.175781 -4.828125 11.25 -5.421875 C 11.320312 -6.054688 11.40625 -6.679688 11.5 -7.296875 C 11.59375 -7.910156 11.675781 -8.535156 11.75 -9.171875 L 12.25 -13.15625 C 12.289062 -13.226562 12.3125 -13.410156 12.3125 -13.703125 C 12.3125 -13.859375 12.253906 -13.9375 12.140625 -13.9375 C 12.023438 -14.007812 11.914062 -13.988281 11.8125 -13.875 L 10.625 -12.484375 C 9.695312 -11.328125 8.726562 -10.257812 7.71875 -9.28125 C 6.707031 -8.3125 5.585938 -7.421875 4.359375 -6.609375 C 4.140625 -6.453125 3.914062 -6.34375 3.6875 -6.28125 C 3.46875 -6.226562 3.242188 -6.1875 3.015625 -6.15625 C 2.273438 -6.15625 1.773438 -6.367188 1.515625 -6.796875 C 1.253906 -7.222656 1.125 -7.773438 1.125 -8.453125 C 1.125 -9.679688 1.300781 -10.972656 1.65625 -12.328125 C 2.007812 -13.691406 2.59375 -14.859375 3.40625 -15.828125 C 3.59375 -16.015625 3.800781 -16.109375 4.03125 -16.109375 C 4.0625 -16.109375 4.101562 -16.097656 4.15625 -16.078125 C 4.21875 -16.066406 4.304688 -16.039062 4.421875 -16 C 4.796875 -15.78125 4.832031 -15.460938 4.53125 -15.046875 C 4.007812 -14.335938 3.625 -13.582031 3.375 -12.78125 C 3.132812 -11.976562 2.921875 -11.148438 2.734375 -10.296875 C 2.660156 -9.992188 2.613281 -9.691406 2.59375 -9.390625 C 2.582031 -9.097656 2.578125 -8.800781 2.578125 -8.5 C 2.503906 -7.976562 2.671875 -7.71875 3.078125 -7.71875 C 3.222656 -7.71875 3.410156 -7.773438 3.640625 -7.890625 C 3.785156 -7.960938 3.921875 -8.054688 4.046875 -8.171875 C 4.179688 -8.285156 4.320312 -8.378906 4.46875 -8.453125 C 4.625 -8.523438 4.765625 -8.613281 4.890625 -8.71875 C 5.023438 -8.832031 5.164062 -8.929688 5.3125 -9.015625 C 6.019531 -9.535156 6.679688 -10.128906 7.296875 -10.796875 C 7.910156 -11.472656 8.519531 -12.179688 9.125 -12.921875 C 9.382812 -13.222656 9.644531 -13.539062 9.90625 -13.875 C 10.164062 -14.207031 10.425781 -14.546875 10.6875 -14.890625 C 10.945312 -15.179688 11.195312 -15.492188 11.4375 -15.828125 C 11.6875 -16.171875 11.941406 -16.488281 12.203125 -16.78125 C 12.273438 -16.851562 12.359375 -16.945312 12.453125 -17.0625 C 12.546875 -17.175781 12.628906 -17.269531 12.703125 -17.34375 C 12.890625 -17.53125 13.09375 -17.625 13.3125 -17.625 C 13.351562 -17.625 13.375 -17.625 13.375 -17.625 C 13.375 -17.625 13.390625 -17.625 13.421875 -17.625 C 13.460938 -17.582031 13.503906 -17.5625 13.546875 -17.5625 C 14.023438 -17.457031 14.191406 -16.9375 14.046875 -16 C 13.972656 -15.289062 13.890625 -14.582031 13.796875 -13.875 C 13.703125 -13.164062 13.617188 -12.457031 13.546875 -11.75 C 13.460938 -11.039062 13.363281 -10.320312 13.25 -9.59375 C 13.144531 -8.863281 13.054688 -8.144531 12.984375 -7.4375 L 12.640625 -4.203125 C 12.679688 -4.203125 12.8125 -4.160156 13.03125 -4.078125 C 13.5625 -4.753906 14.09375 -5.425781 14.625 -6.09375 C 15.164062 -6.769531 15.695312 -7.441406 16.21875 -8.109375 C 16.75 -8.742188 17.28125 -9.394531 17.8125 -10.0625 C 18.351562 -10.738281 18.925781 -11.394531 19.53125 -12.03125 C 19.71875 -12.25 19.921875 -12.453125 20.140625 -12.640625 C 20.328125 -12.753906 20.476562 -12.8125 20.59375 -12.8125 C 20.738281 -12.8125 20.867188 -12.753906 20.984375 -12.640625 C 21.242188 -12.378906 21.300781 -12.117188 21.15625 -11.859375 C 21 -11.597656 20.816406 -11.351562 20.609375 -11.125 C 20.410156 -10.90625 20.21875 -10.664062 20.03125 -10.40625 C 18.832031 -9.03125 17.664062 -7.625 16.53125 -6.1875 C 15.394531 -4.75 14.285156 -3.285156 13.203125 -1.796875 C 12.347656 -0.710938 11.804688 0.484375 11.578125 1.796875 C 11.503906 2.316406 11.351562 3.085938 11.125 4.109375 C 10.90625 5.140625 10.628906 6.1875 10.296875 7.25 C 9.960938 8.3125 9.5625 9.210938 9.09375 9.953125 C 8.625 10.703125 8.109375 11.078125 7.546875 11.078125 Z M 7.78125 8.953125 C 7.925781 8.953125 8.019531 8.894531 8.0625 8.78125 C 8.09375 8.664062 8.144531 8.535156 8.21875 8.390625 L 9.0625 5.984375 C 9.25 5.460938 9.234375 5.015625 9.015625 4.640625 C 8.898438 4.898438 8.773438 5.179688 8.640625 5.484375 C 8.515625 5.785156 8.375 6.082031 8.21875 6.375 L 7.546875 8.0625 C 7.472656 8.207031 7.425781 8.363281 7.40625 8.53125 C 7.394531 8.695312 7.460938 8.816406 7.609375 8.890625 C 7.648438 8.929688 7.707031 8.953125 7.78125 8.953125 Z M 7.78125 8.953125 "/></g></g></g><g fill="#000000" fill-opacity="1"><g transform="translate(44.864365, 33.725307)"><g><path d="M 2.34375 -2.796875 C 1.675781 -2.796875 1.082031 -3 0.5625 -3.40625 C 0.0390625 -3.820312 -0.296875 -4.398438 -0.453125 -5.140625 C -0.554688 -5.703125 -0.59375 -6.191406 -0.5625 -6.609375 C -0.488281 -7.390625 -0.265625 -8.289062 0.109375 -9.3125 C 0.484375 -10.34375 0.988281 -11.304688 1.625 -12.203125 C 2.257812 -13.097656 2.929688 -13.675781 3.640625 -13.9375 C 3.859375 -14.039062 4.097656 -14.09375 4.359375 -14.09375 C 4.703125 -14.0625 4.910156 -13.878906 4.984375 -13.546875 C 5.054688 -13.097656 4.941406 -12.851562 4.640625 -12.8125 C 4.003906 -12.695312 3.519531 -12.4375 3.1875 -12.03125 C 2.851562 -11.625 2.535156 -11.175781 2.234375 -10.6875 C 1.710938 -9.675781 1.34375 -8.722656 1.125 -7.828125 C 0.96875 -7.421875 0.890625 -6.878906 0.890625 -6.203125 C 0.890625 -5.128906 1.265625 -4.5 2.015625 -4.3125 C 2.460938 -4.3125 2.832031 -4.363281 3.125 -4.46875 C 3.425781 -4.582031 3.707031 -4.863281 3.96875 -5.3125 C 4.34375 -5.90625 4.566406 -6.5 4.640625 -7.09375 C 4.710938 -7.695312 4.546875 -8.316406 4.140625 -8.953125 C 3.921875 -9.328125 3.734375 -9.703125 3.578125 -10.078125 C 3.503906 -10.253906 3.53125 -10.425781 3.65625 -10.59375 C 3.789062 -10.769531 3.953125 -10.875 4.140625 -10.90625 L 5.875 -10.90625 C 6.914062 -10.90625 7.960938 -11.078125 9.015625 -11.421875 C 9.273438 -11.492188 9.535156 -11.582031 9.796875 -11.6875 C 10.054688 -11.800781 10.316406 -11.894531 10.578125 -11.96875 C 10.835938 -12.039062 11.085938 -12.132812 11.328125 -12.25 C 11.566406 -12.363281 11.816406 -12.457031 12.078125 -12.53125 L 12.984375 -12.75 C 13.273438 -12.75 13.515625 -12.601562 13.703125 -12.3125 C 13.890625 -11.863281 13.742188 -11.566406 13.265625 -11.421875 C 12.742188 -11.234375 12.21875 -11.046875 11.6875 -10.859375 C 11.164062 -10.671875 10.644531 -10.484375 10.125 -10.296875 C 9.601562 -10.109375 9.070312 -9.945312 8.53125 -9.8125 C 7.988281 -9.6875 7.421875 -9.585938 6.828125 -9.515625 C 6.304688 -9.441406 6.015625 -9.359375 5.953125 -9.265625 C 5.898438 -9.171875 5.910156 -8.878906 5.984375 -8.390625 C 6.210938 -7.304688 6.082031 -6.242188 5.59375 -5.203125 C 5.21875 -4.421875 4.660156 -3.769531 3.921875 -3.25 C 3.398438 -2.945312 2.875 -2.796875 2.34375 -2.796875 Z M 2.34375 -2.796875 "/></g></g></g><g fill="#000000" fill-opacity="1"><g transform="translate(54.485965, 33.725307)"><g><path d="M 1 3.96875 C 0.289062 3.96875 -0.179688 3.578125 -0.421875 2.796875 C -0.660156 2.015625 -0.78125 1.304688 -0.78125 0.671875 C -0.78125 -1.117188 -0.554688 -3.101562 -0.109375 -5.28125 C 0.335938 -7.46875 0.882812 -9.625 1.53125 -11.75 C 2.1875 -13.875 2.8125 -15.773438 3.40625 -17.453125 C 3.59375 -17.972656 3.769531 -18.46875 3.9375 -18.9375 C 4.113281 -19.40625 4.289062 -19.878906 4.46875 -20.359375 C 4.625 -20.773438 4.671875 -21.066406 4.609375 -21.234375 C 4.554688 -21.398438 4.363281 -21.484375 4.03125 -21.484375 L 3.578125 -21.484375 C 3.203125 -21.453125 2.828125 -21.414062 2.453125 -21.375 C 2.085938 -21.332031 1.71875 -21.273438 1.34375 -21.203125 C 0.96875 -21.171875 0.582031 -21.125 0.1875 -21.0625 C -0.195312 -21.007812 -0.578125 -20.960938 -0.953125 -20.921875 C -1.171875 -20.890625 -1.398438 -20.851562 -1.640625 -20.8125 C -1.890625 -20.78125 -2.125 -20.765625 -2.34375 -20.765625 C -2.644531 -20.765625 -2.851562 -20.78125 -2.96875 -20.8125 C -3.15625 -20.851562 -3.285156 -20.96875 -3.359375 -21.15625 C -3.429688 -21.519531 -3.335938 -21.722656 -3.078125 -21.765625 C -2.929688 -21.804688 -2.800781 -21.84375 -2.6875 -21.875 C -2.570312 -21.914062 -2.457031 -21.953125 -2.34375 -21.984375 C -2.195312 -22.023438 -2.054688 -22.050781 -1.921875 -22.0625 C -1.796875 -22.082031 -1.660156 -22.113281 -1.515625 -22.15625 C -0.992188 -22.226562 -0.484375 -22.300781 0.015625 -22.375 C 0.523438 -22.457031 1.023438 -22.515625 1.515625 -22.546875 C 2.035156 -22.617188 2.535156 -22.679688 3.015625 -22.734375 C 3.503906 -22.796875 3.988281 -22.847656 4.46875 -22.890625 C 5.144531 -22.921875 5.613281 -23.238281 5.875 -23.84375 L 7.390625 -27.1875 C 7.535156 -27.414062 7.664062 -27.640625 7.78125 -27.859375 C 7.894531 -28.085938 8.023438 -28.3125 8.171875 -28.53125 C 8.285156 -28.757812 8.40625 -28.984375 8.53125 -29.203125 C 8.664062 -29.429688 8.804688 -29.65625 8.953125 -29.875 C 9.359375 -30.550781 9.75 -30.890625 10.125 -30.890625 C 10.351562 -30.890625 10.519531 -30.757812 10.625 -30.5 C 10.707031 -30.125 10.613281 -29.710938 10.34375 -29.265625 C 10.050781 -28.515625 9.726562 -27.765625 9.375 -27.015625 C 9.019531 -26.273438 8.65625 -25.53125 8.28125 -24.78125 C 8.238281 -24.707031 8.195312 -24.613281 8.15625 -24.5 C 8.125 -24.394531 8.09375 -24.304688 8.0625 -24.234375 C 7.945312 -24.003906 7.890625 -23.738281 7.890625 -23.4375 C 8.035156 -23.40625 8.164062 -23.378906 8.28125 -23.359375 C 8.394531 -23.335938 8.503906 -23.328125 8.609375 -23.328125 C 8.765625 -23.328125 8.878906 -23.347656 8.953125 -23.390625 C 9.023438 -23.390625 9.078125 -23.390625 9.109375 -23.390625 C 9.148438 -23.390625 9.191406 -23.390625 9.234375 -23.390625 C 10.015625 -23.460938 10.820312 -23.546875 11.65625 -23.640625 C 12.5 -23.734375 13.390625 -23.816406 14.328125 -23.890625 C 15.253906 -23.960938 16.132812 -24.035156 16.96875 -24.109375 C 17.8125 -24.191406 18.628906 -24.269531 19.421875 -24.34375 L 21.4375 -24.34375 C 21.695312 -24.34375 21.84375 -24.15625 21.875 -23.78125 C 21.875 -23.476562 21.765625 -23.289062 21.546875 -23.21875 C 21.390625 -23.1875 21.253906 -23.160156 21.140625 -23.140625 C 21.035156 -23.117188 20.925781 -23.109375 20.8125 -23.109375 C 20.695312 -23.066406 20.582031 -23.046875 20.46875 -23.046875 C 20.363281 -23.046875 20.238281 -23.03125 20.09375 -23 L 8.0625 -21.9375 C 7.238281 -21.863281 6.695312 -21.488281 6.4375 -20.8125 C 6.101562 -20.101562 5.703125 -19.085938 5.234375 -17.765625 C 4.765625 -16.441406 4.273438 -15.015625 3.765625 -13.484375 C 3.265625 -11.953125 2.8125 -10.492188 2.40625 -9.109375 C 2 -7.734375 1.703125 -6.632812 1.515625 -5.8125 C 1.285156 -4.882812 1.101562 -3.960938 0.96875 -3.046875 C 0.84375 -2.128906 0.742188 -1.1875 0.671875 -0.21875 C 0.628906 0.1875 0.597656 0.625 0.578125 1.09375 C 0.566406 1.5625 0.765625 1.960938 1.171875 2.296875 C 1.585938 2.253906 1.960938 2.066406 2.296875 1.734375 C 2.441406 1.546875 2.578125 1.367188 2.703125 1.203125 C 2.835938 1.035156 2.984375 0.878906 3.140625 0.734375 C 3.734375 -0.015625 4.445312 -0.976562 5.28125 -2.15625 C 6.125 -3.332031 6.984375 -4.535156 7.859375 -5.765625 C 8.734375 -6.992188 9.546875 -8.109375 10.296875 -9.109375 C 11.046875 -10.117188 11.625 -10.832031 12.03125 -11.25 C 12.101562 -11.363281 12.195312 -11.472656 12.3125 -11.578125 C 12.425781 -11.691406 12.519531 -11.804688 12.59375 -11.921875 C 12.78125 -12.109375 13.003906 -12.253906 13.265625 -12.359375 C 13.296875 -12.359375 13.332031 -12.378906 13.375 -12.421875 C 13.40625 -12.421875 13.421875 -12.421875 13.421875 -12.421875 C 13.421875 -12.421875 13.441406 -12.421875 13.484375 -12.421875 C 13.523438 -12.421875 13.65625 -12.382812 13.875 -12.3125 C 14.175781 -12.082031 14.234375 -11.800781 14.046875 -11.46875 C 14.046875 -11.351562 13.988281 -11.242188 13.875 -11.140625 C 13.3125 -10.460938 12.570312 -9.507812 11.65625 -8.28125 C 10.75 -7.050781 9.90625 -5.894531 9.125 -4.8125 C 8.1875 -3.539062 7.234375 -2.257812 6.265625 -0.96875 C 5.296875 0.3125 4.363281 1.472656 3.46875 2.515625 C 3.207031 2.847656 2.84375 3.171875 2.375 3.484375 C 1.90625 3.804688 1.445312 3.96875 1 3.96875 Z M 1 3.96875 "/></g></g></g><g fill="#000000" fill-opacity="1"><g transform="translate(64.38728, 33.725307)"><g><path d="M 2.34375 -2.796875 C 1.675781 -2.796875 1.082031 -3 0.5625 -3.40625 C 0.0390625 -3.820312 -0.296875 -4.398438 -0.453125 -5.140625 C -0.554688 -5.703125 -0.59375 -6.191406 -0.5625 -6.609375 C -0.488281 -7.390625 -0.265625 -8.289062 0.109375 -9.3125 C 0.484375 -10.34375 0.988281 -11.304688 1.625 -12.203125 C 2.257812 -13.097656 2.929688 -13.675781 3.640625 -13.9375 C 3.859375 -14.039062 4.097656 -14.09375 4.359375 -14.09375 C 4.703125 -14.0625 4.910156 -13.878906 4.984375 -13.546875 C 5.054688 -13.097656 4.941406 -12.851562 4.640625 -12.8125 C 4.003906 -12.695312 3.519531 -12.4375 3.1875 -12.03125 C 2.851562 -11.625 2.535156 -11.175781 2.234375 -10.6875 C 1.710938 -9.675781 1.34375 -8.722656 1.125 -7.828125 C 0.96875 -7.421875 0.890625 -6.878906 0.890625 -6.203125 C 0.890625 -5.128906 1.265625 -4.5 2.015625 -4.3125 C 2.460938 -4.3125 2.832031 -4.363281 3.125 -4.46875 C 3.425781 -4.582031 3.707031 -4.863281 3.96875 -5.3125 C 4.34375 -5.90625 4.566406 -6.5 4.640625 -7.09375 C 4.710938 -7.695312 4.546875 -8.316406 4.140625 -8.953125 C 3.921875 -9.328125 3.734375 -9.703125 3.578125 -10.078125 C 3.503906 -10.253906 3.53125 -10.425781 3.65625 -10.59375 C 3.789062 -10.769531 3.953125 -10.875 4.140625 -10.90625 L 5.875 -10.90625 C 6.914062 -10.90625 7.960938 -11.078125 9.015625 -11.421875 C 9.273438 -11.492188 9.535156 -11.582031 9.796875 -11.6875 C 10.054688 -11.800781 10.316406 -11.894531 10.578125 -11.96875 C 10.835938 -12.039062 11.085938 -12.132812 11.328125 -12.25 C 11.566406 -12.363281 11.816406 -12.457031 12.078125 -12.53125 L 12.984375 -12.75 C 13.273438 -12.75 13.515625 -12.601562 13.703125 -12.3125 C 13.890625 -11.863281 13.742188 -11.566406 13.265625 -11.421875 C 12.742188 -11.234375 12.21875 -11.046875 11.6875 -10.859375 C 11.164062 -10.671875 10.644531 -10.484375 10.125 -10.296875 C 9.601562 -10.109375 9.070312 -9.945312 8.53125 -9.8125 C 7.988281 -9.6875 7.421875 -9.585938 6.828125 -9.515625 C 6.304688 -9.441406 6.015625 -9.359375 5.953125 -9.265625 C 5.898438 -9.171875 5.910156 -8.878906 5.984375 -8.390625 C 6.210938 -7.304688 6.082031 -6.242188 5.59375 -5.203125 C 5.21875 -4.421875 4.660156 -3.769531 3.921875 -3.25 C 3.398438 -2.945312 2.875 -2.796875 2.34375 -2.796875 Z M 2.34375 -2.796875 "/></g></g></g><g fill="#000000" fill-opacity="1"><g transform="translate(74.00888, 33.725307)"><g><path d="M 0.328125 -0.5625 C 0.179688 -0.5625 0.09375 -0.578125 0.0625 -0.609375 C -0.351562 -0.722656 -0.5625 -1.003906 -0.5625 -1.453125 C -0.5625 -2.941406 -0.410156 -4.421875 -0.109375 -5.890625 C 0.179688 -7.367188 0.535156 -8.816406 0.953125 -10.234375 C 1.066406 -10.609375 1.28125 -11.300781 1.59375 -12.3125 C 1.90625 -13.320312 2.273438 -14.421875 2.703125 -15.609375 C 3.140625 -16.804688 3.570312 -17.859375 4 -18.765625 C 4.425781 -19.679688 4.789062 -20.210938 5.09375 -20.359375 C 5.3125 -20.441406 5.421875 -20.484375 5.421875 -20.484375 C 5.503906 -20.484375 5.597656 -20.425781 5.703125 -20.3125 C 5.816406 -20.195312 5.894531 -20.101562 5.9375 -20.03125 C 6.007812 -19.695312 5.988281 -19.4375 5.875 -19.25 C 5.726562 -18.988281 5.597656 -18.726562 5.484375 -18.46875 C 4.515625 -16.414062 3.691406 -14.285156 3.015625 -12.078125 C 2.347656 -9.878906 1.769531 -7.660156 1.28125 -5.421875 C 1.25 -5.273438 1.25 -5.144531 1.28125 -5.03125 C 1.28125 -4.882812 1.265625 -4.773438 1.234375 -4.703125 C 1.265625 -4.660156 1.359375 -4.640625 1.515625 -4.640625 C 1.660156 -4.640625 1.753906 -4.695312 1.796875 -4.8125 C 1.867188 -4.957031 1.921875 -5.050781 1.953125 -5.09375 C 2.179688 -5.5 2.40625 -5.894531 2.625 -6.28125 C 2.851562 -6.675781 3.078125 -7.082031 3.296875 -7.5 C 3.523438 -7.90625 3.75 -8.300781 3.96875 -8.6875 C 4.195312 -9.082031 4.441406 -9.46875 4.703125 -9.84375 C 5.179688 -10.59375 5.726562 -11.359375 6.34375 -12.140625 C 6.96875 -12.921875 7.648438 -13.570312 8.390625 -14.09375 C 8.617188 -14.207031 8.828125 -14.265625 9.015625 -14.265625 C 9.492188 -14.265625 9.828125 -14.003906 10.015625 -13.484375 C 10.160156 -13.179688 10.242188 -12.863281 10.265625 -12.53125 C 10.285156 -12.195312 10.273438 -11.863281 10.234375 -11.53125 C 10.234375 -11.269531 10.234375 -11.023438 10.234375 -10.796875 C 10.234375 -10.578125 10.21875 -10.351562 10.1875 -10.125 C 10.144531 -9.90625 10.125 -9.679688 10.125 -9.453125 C 10.125 -9.234375 10.109375 -9.007812 10.078125 -8.78125 C 10.078125 -8.664062 10.078125 -8.550781 10.078125 -8.4375 C 10.078125 -8.332031 10.09375 -8.222656 10.125 -8.109375 C 10.125 -8.003906 10.125 -7.894531 10.125 -7.78125 C 10.125 -7.664062 10.125 -7.570312 10.125 -7.5 C 10.125 -7.269531 10.273438 -7.15625 10.578125 -7.15625 C 10.609375 -7.195312 10.644531 -7.21875 10.6875 -7.21875 L 11.75 -8.21875 C 11.894531 -8.375 12.050781 -8.523438 12.21875 -8.671875 C 12.394531 -8.816406 12.554688 -8.96875 12.703125 -9.125 C 12.847656 -9.269531 12.992188 -9.414062 13.140625 -9.5625 C 13.296875 -9.71875 13.445312 -9.867188 13.59375 -10.015625 C 14.039062 -10.316406 14.394531 -10.539062 14.65625 -10.6875 C 14.8125 -10.726562 14.929688 -10.753906 15.015625 -10.765625 C 15.109375 -10.785156 15.175781 -10.796875 15.21875 -10.796875 C 15.738281 -10.796875 16.113281 -10.554688 16.34375 -10.078125 C 16.488281 -9.847656 16.582031 -9.675781 16.625 -9.5625 C 16.65625 -9.488281 16.679688 -9.40625 16.703125 -9.3125 C 16.722656 -9.21875 16.75 -9.132812 16.78125 -9.0625 C 16.9375 -8.6875 17.125 -8.367188 17.34375 -8.109375 C 17.644531 -7.773438 17.960938 -7.609375 18.296875 -7.609375 C 18.671875 -7.609375 19.097656 -7.753906 19.578125 -8.046875 C 20.066406 -8.347656 20.441406 -8.59375 20.703125 -8.78125 C 21.335938 -9.300781 21.972656 -9.84375 22.609375 -10.40625 C 23.242188 -10.96875 23.859375 -11.507812 24.453125 -12.03125 C 24.484375 -12.0625 24.519531 -12.097656 24.5625 -12.140625 C 24.601562 -12.179688 24.640625 -12.238281 24.671875 -12.3125 C 24.972656 -12.5 25.179688 -12.59375 25.296875 -12.59375 C 25.515625 -12.59375 25.679688 -12.5 25.796875 -12.3125 C 26.128906 -11.976562 26.109375 -11.625 25.734375 -11.25 C 25.515625 -10.945312 25.253906 -10.6875 24.953125 -10.46875 L 21.59375 -7.609375 C 21.113281 -7.203125 20.441406 -6.789062 19.578125 -6.375 C 19.242188 -6.226562 18.816406 -6.15625 18.296875 -6.15625 C 17.328125 -6.15625 16.546875 -6.617188 15.953125 -7.546875 C 15.867188 -7.703125 15.789062 -7.84375 15.71875 -7.96875 C 15.644531 -8.101562 15.59375 -8.242188 15.5625 -8.390625 C 15.445312 -8.691406 15.238281 -8.9375 14.9375 -9.125 C 14.675781 -8.96875 14.429688 -8.796875 14.203125 -8.609375 C 13.984375 -8.429688 13.78125 -8.25 13.59375 -8.0625 C 13.40625 -7.875 13.195312 -7.664062 12.96875 -7.4375 C 12.75 -7.21875 12.546875 -7.015625 12.359375 -6.828125 C 12.210938 -6.679688 12.0625 -6.53125 11.90625 -6.375 C 11.757812 -6.226562 11.613281 -6.082031 11.46875 -5.9375 C 11.164062 -5.632812 10.8125 -5.390625 10.40625 -5.203125 C 10.101562 -5.128906 9.953125 -5.09375 9.953125 -5.09375 C 9.585938 -5.09375 9.273438 -5.28125 9.015625 -5.65625 C 8.828125 -6.0625 8.710938 -6.46875 8.671875 -6.875 C 8.628906 -7.289062 8.609375 -7.722656 8.609375 -8.171875 C 8.648438 -8.578125 8.679688 -8.992188 8.703125 -9.421875 C 8.722656 -9.859375 8.734375 -10.28125 8.734375 -10.6875 C 8.734375 -10.800781 8.738281 -10.921875 8.75 -11.046875 C 8.769531 -11.179688 8.800781 -11.320312 8.84375 -11.46875 C 8.914062 -11.769531 8.785156 -11.957031 8.453125 -12.03125 C 8.222656 -12.0625 8.035156 -11.988281 7.890625 -11.8125 C 7.816406 -11.65625 7.738281 -11.519531 7.65625 -11.40625 C 7.582031 -11.300781 7.507812 -11.210938 7.4375 -11.140625 C 6.957031 -10.578125 6.519531 -9.988281 6.125 -9.375 C 5.738281 -8.757812 5.359375 -8.132812 4.984375 -7.5 C 4.535156 -6.675781 4.085938 -5.863281 3.640625 -5.0625 C 3.191406 -4.257812 2.742188 -3.46875 2.296875 -2.6875 C 2.109375 -2.351562 1.929688 -2.035156 1.765625 -1.734375 C 1.597656 -1.429688 1.363281 -1.148438 1.0625 -0.890625 C 0.84375 -0.671875 0.597656 -0.5625 0.328125 -0.5625 Z M 0.328125 -0.5625 "/></g></g></g><g fill="#000000" fill-opacity="1"><g transform="translate(95.881638, 33.725307)"><g><path d="M 2.40625 -2.015625 C 1.363281 -2.015625 0.632812 -2.554688 0.21875 -3.640625 C 0.113281 -3.929688 0.0507812 -4.234375 0.03125 -4.546875 C 0.0078125 -4.867188 0 -5.238281 0 -5.65625 C 0.144531 -6.46875 0.3125 -7.441406 0.5 -8.578125 C 0.6875 -9.722656 0.9375 -10.804688 1.25 -11.828125 C 1.570312 -12.859375 1.976562 -13.613281 2.46875 -14.09375 C 2.644531 -14.207031 2.789062 -14.265625 2.90625 -14.265625 C 2.945312 -14.265625 3.078125 -14.226562 3.296875 -14.15625 C 3.554688 -14.039062 3.648438 -13.835938 3.578125 -13.546875 C 3.097656 -12.304688 2.671875 -11.003906 2.296875 -9.640625 C 1.921875 -8.285156 1.640625 -6.957031 1.453125 -5.65625 C 1.421875 -5.238281 1.457031 -4.753906 1.5625 -4.203125 C 1.632812 -3.898438 1.765625 -3.710938 1.953125 -3.640625 C 2.140625 -3.566406 2.382812 -3.53125 2.6875 -3.53125 C 3.09375 -3.601562 3.460938 -3.734375 3.796875 -3.921875 C 4.140625 -4.109375 4.476562 -4.332031 4.8125 -4.59375 C 5.5625 -5.226562 6.28125 -5.878906 6.96875 -6.546875 C 7.65625 -7.210938 8.316406 -7.921875 8.953125 -8.671875 C 9.171875 -8.929688 9.390625 -9.191406 9.609375 -9.453125 C 9.835938 -9.710938 10.046875 -9.972656 10.234375 -10.234375 C 10.421875 -10.492188 10.625 -10.753906 10.84375 -11.015625 C 11.070312 -11.285156 11.300781 -11.550781 11.53125 -11.8125 C 11.632812 -11.957031 11.75 -12.082031 11.875 -12.1875 C 12.007812 -12.300781 12.15625 -12.414062 12.3125 -12.53125 C 12.382812 -12.601562 12.476562 -12.640625 12.59375 -12.640625 C 12.738281 -12.640625 12.867188 -12.585938 12.984375 -12.484375 C 13.203125 -12.328125 13.273438 -12.101562 13.203125 -11.8125 C 13.171875 -11.582031 13.0625 -11.375 12.875 -11.1875 C 11.90625 -9.914062 10.90625 -8.679688 9.875 -7.484375 C 8.851562 -6.296875 7.722656 -5.179688 6.484375 -4.140625 C 5.960938 -3.648438 5.335938 -3.171875 4.609375 -2.703125 C 3.890625 -2.242188 3.15625 -2.015625 2.40625 -2.015625 Z M 3.859375 -16.28125 C 3.296875 -16.207031 2.976562 -16.5625 2.90625 -17.34375 C 2.90625 -18.019531 3.242188 -18.359375 3.921875 -18.359375 C 4.628906 -18.359375 5 -18.054688 5.03125 -17.453125 C 5.03125 -17.160156 4.910156 -16.890625 4.671875 -16.640625 C 4.429688 -16.398438 4.160156 -16.28125 3.859375 -16.28125 Z M 3.859375 -16.28125 "/></g></g></g><g fill="#000000" fill-opacity="1"><g transform="translate(104.943835, 33.725307)"><g><path d="M 1.515625 -0.171875 C 0.722656 -0.171875 0.160156 -0.597656 -0.171875 -1.453125 C -0.359375 -1.972656 -0.46875 -2.492188 -0.5 -3.015625 C -0.570312 -3.546875 -0.570312 -4.03125 -0.5 -4.46875 C -0.28125 -6.15625 0.078125 -7.769531 0.578125 -9.3125 C 1.085938 -10.863281 1.789062 -12.347656 2.6875 -13.765625 C 2.875 -14.066406 3.078125 -14.351562 3.296875 -14.625 C 3.523438 -14.90625 3.769531 -15.195312 4.03125 -15.5 C 4.25 -15.6875 4.507812 -15.816406 4.8125 -15.890625 C 4.851562 -15.929688 4.925781 -15.953125 5.03125 -15.953125 C 5.21875 -15.953125 5.367188 -15.875 5.484375 -15.71875 C 5.628906 -15.5 5.648438 -15.273438 5.546875 -15.046875 C 5.460938 -14.941406 5.394531 -14.847656 5.34375 -14.765625 C 5.289062 -14.691406 5.242188 -14.640625 5.203125 -14.609375 C 4.453125 -13.929688 3.785156 -12.992188 3.203125 -11.796875 C 2.628906 -10.609375 2.144531 -9.367188 1.75 -8.078125 C 1.363281 -6.796875 1.097656 -5.648438 0.953125 -4.640625 C 0.765625 -3.671875 0.859375 -2.773438 1.234375 -1.953125 C 1.304688 -1.765625 1.453125 -1.671875 1.671875 -1.671875 C 1.753906 -1.671875 1.8125 -1.691406 1.84375 -1.734375 C 2.21875 -1.878906 2.664062 -2.25 3.1875 -2.84375 C 3.707031 -3.445312 4.226562 -4.128906 4.75 -4.890625 C 5.28125 -5.660156 5.757812 -6.390625 6.1875 -7.078125 C 6.613281 -7.765625 6.921875 -8.296875 7.109375 -8.671875 C 7.179688 -8.785156 7.242188 -8.894531 7.296875 -9 C 7.359375 -9.113281 7.40625 -9.226562 7.4375 -9.34375 C 7.507812 -9.457031 7.570312 -9.566406 7.625 -9.671875 C 7.6875 -9.785156 7.753906 -9.878906 7.828125 -9.953125 C 7.984375 -10.210938 8.171875 -10.34375 8.390625 -10.34375 C 8.429688 -10.34375 8.453125 -10.34375 8.453125 -10.34375 C 8.453125 -10.34375 8.46875 -10.34375 8.5 -10.34375 C 8.539062 -10.3125 8.578125 -10.296875 8.609375 -10.296875 C 8.984375 -10.179688 9.171875 -9.898438 9.171875 -9.453125 C 9.140625 -9.234375 9.101562 -9 9.0625 -8.75 C 9.03125 -8.507812 8.992188 -8.257812 8.953125 -8 C 8.835938 -6.84375 8.988281 -5.78125 9.40625 -4.8125 C 9.8125 -3.914062 10.3125 -3.46875 10.90625 -3.46875 C 11.613281 -3.46875 12.191406 -3.773438 12.640625 -4.390625 C 13.085938 -5.003906 13.441406 -5.773438 13.703125 -6.703125 C 13.960938 -7.640625 14.140625 -8.570312 14.234375 -9.5 C 14.328125 -10.4375 14.375 -11.207031 14.375 -11.8125 C 14.414062 -11.988281 14.453125 -12.132812 14.484375 -12.25 C 14.523438 -12.363281 14.640625 -12.457031 14.828125 -12.53125 C 14.898438 -12.53125 14.957031 -12.550781 15 -12.59375 C 15 -12.59375 15.003906 -12.59375 15.015625 -12.59375 C 15.035156 -12.59375 15.066406 -12.59375 15.109375 -12.59375 C 15.367188 -12.59375 15.59375 -12.441406 15.78125 -12.140625 L 16.171875 -11.578125 C 16.578125 -11.054688 17.085938 -10.664062 17.703125 -10.40625 C 18.316406 -10.144531 18.941406 -10.015625 19.578125 -10.015625 C 19.921875 -10.015625 20.25 -10.039062 20.5625 -10.09375 C 20.875 -10.15625 21.179688 -10.28125 21.484375 -10.46875 C 21.671875 -10.539062 21.859375 -10.628906 22.046875 -10.734375 C 22.234375 -10.847656 22.421875 -10.984375 22.609375 -11.140625 C 22.796875 -11.285156 22.972656 -11.410156 23.140625 -11.515625 C 23.304688 -11.628906 23.460938 -11.742188 23.609375 -11.859375 C 23.910156 -12.085938 24.132812 -12.203125 24.28125 -12.203125 C 24.46875 -12.203125 24.632812 -12.125 24.78125 -11.96875 C 25.195312 -11.675781 25.101562 -11.269531 24.5 -10.75 C 23.832031 -10.144531 23.097656 -9.628906 22.296875 -9.203125 C 21.492188 -8.773438 20.628906 -8.5625 19.703125 -8.5625 C 19.066406 -8.5625 18.429688 -8.65625 17.796875 -8.84375 C 17.160156 -9.03125 16.546875 -9.253906 15.953125 -9.515625 C 15.796875 -9.253906 15.679688 -8.953125 15.609375 -8.609375 C 15.578125 -8.460938 15.550781 -8.304688 15.53125 -8.140625 C 15.507812 -7.972656 15.476562 -7.816406 15.4375 -7.671875 C 15.289062 -6.617188 14.945312 -5.550781 14.40625 -4.46875 C 13.863281 -3.394531 13.050781 -2.648438 11.96875 -2.234375 C 11.675781 -2.085938 11.285156 -2.015625 10.796875 -2.015625 C 10.054688 -2.015625 9.414062 -2.320312 8.875 -2.9375 C 8.332031 -3.550781 7.96875 -4.195312 7.78125 -4.875 C 7.738281 -5.050781 7.6875 -5.222656 7.625 -5.390625 C 7.570312 -5.566406 7.457031 -5.707031 7.28125 -5.8125 C 6.976562 -5.632812 6.769531 -5.429688 6.65625 -5.203125 C 6.582031 -5.054688 6.5 -4.925781 6.40625 -4.8125 C 6.3125 -4.695312 6.226562 -4.566406 6.15625 -4.421875 C 5.78125 -3.972656 5.441406 -3.523438 5.140625 -3.078125 C 4.992188 -2.816406 4.816406 -2.570312 4.609375 -2.34375 C 4.410156 -2.125 4.21875 -1.898438 4.03125 -1.671875 C 3.695312 -1.304688 3.320312 -0.960938 2.90625 -0.640625 C 2.5 -0.328125 2.035156 -0.171875 1.515625 -0.171875 Z M 1.515625 -0.171875 "/></g></g></g><g fill="#000000" fill-opacity="1"><g transform="translate(125.753713, 33.725307)"><g><path d="M 0.28125 -4.8125 C -0.46875 -4.8125 -0.878906 -5.257812 -0.953125 -6.15625 C -0.953125 -6.976562 -0.773438 -7.851562 -0.421875 -8.78125 C -0.0664062 -9.71875 0.378906 -10.613281 0.921875 -11.46875 C 1.460938 -12.320312 2.015625 -13.03125 2.578125 -13.59375 C 2.722656 -13.78125 3 -14.023438 3.40625 -14.328125 C 4.007812 -14.804688 4.628906 -15.046875 5.265625 -15.046875 C 5.816406 -15.046875 6.375 -14.820312 6.9375 -14.375 C 7.238281 -14.1875 7.40625 -14.09375 7.4375 -14.09375 C 7.550781 -14.09375 7.722656 -14.242188 7.953125 -14.546875 C 8.128906 -14.734375 8.300781 -14.9375 8.46875 -15.15625 C 8.644531 -15.382812 8.804688 -15.609375 8.953125 -15.828125 C 9.097656 -16.054688 9.253906 -16.28125 9.421875 -16.5 C 9.597656 -16.726562 9.757812 -16.953125 9.90625 -17.171875 C 9.976562 -17.253906 10.050781 -17.347656 10.125 -17.453125 C 10.195312 -17.566406 10.269531 -17.679688 10.34375 -17.796875 C 10.425781 -17.867188 10.492188 -17.957031 10.546875 -18.0625 C 10.597656 -18.175781 10.664062 -18.273438 10.75 -18.359375 C 11.007812 -18.617188 11.234375 -18.75 11.421875 -18.75 C 11.421875 -18.75 11.53125 -18.707031 11.75 -18.625 C 12.125 -18.40625 12.21875 -18.035156 12.03125 -17.515625 C 11.988281 -17.367188 11.941406 -17.238281 11.890625 -17.125 C 11.835938 -17.007812 11.769531 -16.894531 11.6875 -16.78125 C 11.539062 -16.519531 11.410156 -16.257812 11.296875 -16 C 10.960938 -15.289062 10.570312 -14.414062 10.125 -13.375 C 9.675781 -12.332031 9.289062 -11.273438 8.96875 -10.203125 C 8.65625 -9.140625 8.5 -8.203125 8.5 -7.390625 C 8.5 -7.046875 8.613281 -6.875 8.84375 -6.875 C 8.957031 -6.875 9.03125 -6.894531 9.0625 -6.9375 C 9.320312 -7.050781 9.570312 -7.160156 9.8125 -7.265625 C 10.0625 -7.378906 10.316406 -7.515625 10.578125 -7.671875 C 10.910156 -7.890625 11.253906 -8.117188 11.609375 -8.359375 C 11.960938 -8.609375 12.304688 -8.878906 12.640625 -9.171875 C 12.898438 -9.359375 13.140625 -9.5625 13.359375 -9.78125 C 13.585938 -10.007812 13.816406 -10.21875 14.046875 -10.40625 C 14.453125 -10.8125 14.898438 -11.203125 15.390625 -11.578125 C 15.460938 -11.648438 15.546875 -11.722656 15.640625 -11.796875 C 15.734375 -11.878906 15.816406 -11.957031 15.890625 -12.03125 C 15.960938 -12.101562 16.113281 -12.210938 16.34375 -12.359375 C 16.414062 -12.398438 16.46875 -12.429688 16.5 -12.453125 C 16.539062 -12.472656 16.582031 -12.484375 16.625 -12.484375 C 16.769531 -12.484375 16.898438 -12.425781 17.015625 -12.3125 C 17.273438 -12.15625 17.347656 -11.875 17.234375 -11.46875 C 17.191406 -11.4375 17.171875 -11.410156 17.171875 -11.390625 C 17.171875 -11.367188 17.15625 -11.335938 17.125 -11.296875 C 17.082031 -11.265625 17.039062 -11.226562 17 -11.1875 C 16.96875 -11.15625 16.929688 -11.117188 16.890625 -11.078125 C 16.367188 -10.554688 15.625 -9.859375 14.65625 -8.984375 C 13.6875 -8.109375 12.6875 -7.316406 11.65625 -6.609375 C 10.632812 -5.898438 9.734375 -5.46875 8.953125 -5.3125 C 8.878906 -5.28125 8.710938 -5.265625 8.453125 -5.265625 C 7.515625 -5.265625 7.046875 -5.800781 7.046875 -6.875 C 7.046875 -7.625 7.117188 -8.367188 7.265625 -9.109375 C 7.421875 -9.859375 7.59375 -10.609375 7.78125 -11.359375 C 7.363281 -11.171875 7.082031 -10.984375 6.9375 -10.796875 C 6.863281 -10.679688 6.769531 -10.566406 6.65625 -10.453125 C 6.539062 -10.347656 6.445312 -10.257812 6.375 -10.1875 C 5.738281 -9.4375 5.101562 -8.71875 4.46875 -8.03125 C 3.84375 -7.34375 3.175781 -6.679688 2.46875 -6.046875 C 2.195312 -5.816406 1.859375 -5.550781 1.453125 -5.25 C 1.046875 -4.957031 0.65625 -4.8125 0.28125 -4.8125 Z M 0.78125 -6.828125 C 1.007812 -6.828125 1.175781 -6.882812 1.28125 -7 C 2.175781 -7.738281 3.015625 -8.554688 3.796875 -9.453125 C 4.585938 -10.347656 5.351562 -11.265625 6.09375 -12.203125 C 6.132812 -12.234375 6.171875 -12.265625 6.203125 -12.296875 C 6.242188 -12.335938 6.285156 -12.398438 6.328125 -12.484375 C 6.429688 -12.847656 6.351562 -13.109375 6.09375 -13.265625 C 5.800781 -13.453125 5.539062 -13.546875 5.3125 -13.546875 C 5.125 -13.546875 4.890625 -13.46875 4.609375 -13.3125 C 4.335938 -13.164062 4.125 -13.019531 3.96875 -12.875 C 2.21875 -11.34375 1.117188 -9.363281 0.671875 -6.9375 L 0.734375 -6.875 C 0.765625 -6.875 0.78125 -6.859375 0.78125 -6.828125 Z M 0.78125 -6.828125 "/></g></g></g><g fill="#000000" fill-opacity="1"><g transform="translate(138.904248, 33.725307)"><g/></g></g><path fill="#000000" d="M 155.425781 17.78125 L 154.027344 16.894531 C 153.929688 16.832031 153.816406 16.863281 153.753906 16.960938 L 150.9375 21.464844 C 150.875 21.5625 150.90625 21.671875 151.003906 21.738281 L 152.402344 22.621094 C 152.5 22.6875 152.613281 22.65625 152.675781 22.558594 L 155.492188 18.054688 C 155.554688 17.957031 155.523438 17.828125 155.425781 17.78125 Z M 155.425781 17.78125 " fill-opacity="1" fill-rule="nonzero"/><path fill="#000000" d="M 152.113281 22.832031 L 150.90625 22.074219 C 150.777344 21.996094 150.617188 22.074219 150.601562 22.21875 L 150.457031 23.796875 C 150.441406 23.957031 150.617188 24.070312 150.746094 23.988281 L 152.097656 23.167969 C 152.242188 23.089844 152.242188 22.910156 152.113281 22.832031 Z M 152.113281 22.832031 " fill-opacity="1" fill-rule="nonzero"/><g clip-path="url(#63f05d7124)"><path fill="#000000" d="M 161.90625 10.109375 L 161.039062 9.5625 L 161.457031 8.886719 C 161.8125 8.308594 161.652344 7.550781 161.070312 7.199219 C 160.492188 6.84375 159.738281 7.003906 159.382812 7.582031 L 154.011719 16.171875 C 153.945312 16.269531 153.980469 16.382812 154.074219 16.445312 L 155.828125 17.539062 C 155.925781 17.605469 156.039062 17.570312 156.101562 17.476562 L 160.75 10.058594 L 161.378906 10.445312 L 159.238281 13.855469 C 159.15625 14 159.191406 14.179688 159.335938 14.257812 C 159.480469 14.339844 159.65625 14.308594 159.738281 14.160156 L 162.019531 10.496094 C 162.101562 10.367188 162.054688 10.1875 161.90625 10.109375 Z M 161.90625 10.109375 " fill-opacity="1" fill-rule="nonzero"/></g><g clip-path="url(#4447c564b2)"><path fill="#000000" d="M 142.753906 26.144531 C 142.558594 26.144531 142.382812 26.097656 142.207031 25.953125 C 141.144531 25.148438 138.25 25.679688 138.214844 25.695312 C 138.085938 25.726562 137.960938 25.628906 137.925781 25.5 C 137.894531 25.371094 137.992188 25.242188 138.121094 25.210938 C 138.25 25.179688 141.257812 24.632812 142.496094 25.566406 C 142.976562 25.933594 143.828125 25.003906 144.457031 24.328125 C 144.988281 23.746094 145.308594 23.410156 145.632812 23.492188 C 145.710938 23.507812 145.855469 23.585938 145.921875 23.8125 C 146.128906 24.632812 146.417969 25.082031 146.582031 25.097656 C 146.660156 25.113281 146.835938 24.988281 147.046875 24.585938 C 147.417969 23.875 147.707031 23.585938 148.042969 23.621094 C 148.492188 23.667969 148.71875 24.292969 148.992188 25.179688 C 149.058594 25.371094 149.121094 25.46875 149.167969 25.46875 C 149.378906 25.484375 149.84375 24.90625 150.132812 24.375 C 150.199219 24.261719 150.34375 24.214844 150.472656 24.277344 C 150.585938 24.34375 150.632812 24.488281 150.570312 24.617188 C 150.390625 24.953125 149.765625 26.03125 149.136719 25.96875 C 148.863281 25.933594 148.65625 25.726562 148.542969 25.324219 C 148.300781 24.550781 148.125 24.148438 148.011719 24.101562 C 148.011719 24.101562 147.851562 24.132812 147.496094 24.808594 C 147.382812 25.019531 147.0625 25.644531 146.546875 25.582031 C 146 25.515625 145.664062 24.714844 145.488281 24.003906 C 145.324219 24.117188 145.050781 24.421875 144.84375 24.648438 C 144.230469 25.292969 143.476562 26.128906 142.753906 26.144531 Z M 142.753906 26.144531 " fill-opacity="1" fill-rule="nonzero"/></g></svg>