<svg fill="none" height="49" viewBox="0 0 91 49" width="91" xmlns="http://www.w3.org/2000/svg">
<path d="M64 42.6C75.3771 42.6 84.6 33.3771 84.6 22C84.6 10.6229 75.3771 1.39999 64 1.39999C52.6229 1.39999 43.4 10.6229 43.4 22C43.4 33.3771 52.6229 42.6 64 42.6Z" fill="white"></path>
<path d="M81.3 35.5C84.2 31.8 86 27.1 86 22C86 9.90001 76.1 0.100006 64 0.100006C51.9 0.100006 42.1 9.90001 42.1 22C42.1 34.1 52 44 64 44C69.1 44 73.7 42.3 77.4 39.4L86.9 48.9L90.7 45.1L81.3 35.5ZM44.3 22C44.3 11.1 53.1 2.30001 64 2.30001C74.9 2.30001 83.7 11.1 83.7 22C83.7 32.9 74.9 41.7 64 41.7C53.2 41.7 44.3 32.9 44.3 22Z" fill="#020002"></path>
<path d="M4.5 26.8C3.1 26.8 2 26.4 1.2 25.6C0.4 24.8 0 23.6 0 22.1C0 21.4 0.1 20.7 0.3 20.1C0.5 19.5 0.8 19 1.2 18.6C1.6 18.2 2.1 17.9 2.6 17.7C3.2 17.5 3.8 17.4 4.4 17.4C4.8 17.4 5.1 17.4 5.4 17.5C5.7 17.6 6 17.6 6.2 17.7C6.6 17.9 6.8 17.9 7 18C7.2 18.1 7.3 18.1 7.3 18.2L6.7 19.8C6.4 19.7 6.1 19.5 5.7 19.4C5.3 19.3 4.9 19.2 4.5 19.2C4.2 19.2 3.9 19.3 3.6 19.4C3.3 19.5 3 19.7 2.8 19.9C2.6 20.1 2.4 20.4 2.3 20.8C2.2 21.2 2.1 21.6 2.1 22.1C2.1 22.5 2.1 22.9 2.2 23.2C2.3 23.6 2.4 23.9 2.6 24.1C2.8 24.4 3.1 24.6 3.4 24.7C3.8 24.9 4.2 25 4.6 25C4.9 25 5.2 25 5.4 24.9C5.6 24.9 5.8 24.8 6 24.8C6.2 24.8 6.3 24.7 6.5 24.6C6.6 24.5 6.8 24.5 6.9 24.4L7.5 26C7.2 26.2 6.8 26.3 6.3 26.5C5.7 26.7 5.1 26.8 4.5 26.8Z" fill="white"></path>
<path d="M12.6 21.5C12.4 21.5 12.2 21.4 12 21.4C11.8 21.4 11.5 21.3 11.3 21.3C11.2 21.3 11 21.3 10.9 21.3C10.7 21.3 10.6 21.3 10.5 21.4V26.5H8.6V20.1C8.9 20 9.3 19.9 9.8 19.8C10.3 19.7 10.8 19.6 11.4 19.6C11.5 19.6 11.6 19.6 11.8 19.6C11.9 19.6 12.1 19.6 12.2 19.7C12.3 19.7 12.5 19.7 12.6 19.8C12.7 19.8 12.9 19.9 13 19.9L12.6 21.5Z" fill="white"></path>
<path d="M20.4 19.8C20 21.1 19.6 22.3 19.2 23.5C18.8 24.6 18.3 25.7 17.8 26.8C17.6 27.2 17.4 27.5 17.3 27.8C17.1 28.1 16.9 28.3 16.7 28.5C16.5 28.7 16.2 28.8 16 28.9C15.7 28.9 15.4 29 15 29C14.7 29 14.4 29 14.2 28.9C13.9 28.8 13.7 28.8 13.6 28.7L13.9 27.2C14.1 27.3 14.3 27.3 14.4 27.3C14.6 27.3 14.7 27.3 14.9 27.3C15.2 27.3 15.5 27.2 15.7 27C15.9 26.8 16 26.6 16.2 26.2C15.8 25.3 15.3 24.4 14.9 23.3C14.5 22.2 14.1 21 13.7 19.7H15.7C15.8 20 15.9 20.4 16 20.8C16.1 21.2 16.2 21.6 16.4 22C16.5 22.4 16.7 22.8 16.8 23.2C16.9 23.6 17.1 23.9 17.2 24.2C17.3 23.9 17.4 23.6 17.5 23.2C17.6 22.8 17.7 22.4 17.9 22C18 21.6 18.1 21.2 18.2 20.8C18.3 20.4 18.4 20.1 18.5 19.7H20.4V19.8Z" fill="white"></path>
<path d="M27.7 23.2C27.7 23.7 27.6 24.2 27.5 24.6C27.4 25 27.2 25.4 26.9 25.7C26.7 26 26.3 26.2 26 26.4C25.6 26.6 25.2 26.7 24.7 26.7C24.4 26.7 24.2 26.7 24 26.6C23.8 26.5 23.5 26.5 23.3 26.4V29H21.4V20.1C21.6 20 21.8 20 22 20C22.2 20 22.5 19.9 22.7 19.9C22.9 19.9 23.2 19.8 23.4 19.8C23.7 19.8 23.9 19.8 24.1 19.8C24.7 19.8 25.2 19.9 25.6 20C26 20.2 26.4 20.4 26.7 20.7C27 21 27.2 21.4 27.4 21.8C27.6 22.2 27.7 22.7 27.7 23.2ZM25.7 23.3C25.7 22.7 25.6 22.2 25.3 21.9C25 21.5 24.6 21.4 24.1 21.4C23.9 21.4 23.8 21.4 23.6 21.4C23.5 21.4 23.3 21.4 23.2 21.4V24.8C23.3 24.9 23.5 24.9 23.7 25C23.9 25.1 24.1 25.1 24.3 25.1C25.3 25.1 25.7 24.5 25.7 23.3Z" fill="white"></path>
<path d="M29.1 18.2L31 17.9V19.9H33.3V21.5H31V23.9C31 24.3 31.1 24.6 31.2 24.9C31.3 25.1 31.6 25.3 32.1 25.3C32.3 25.3 32.5 25.3 32.7 25.2C32.9 25.2 33.1 25.1 33.3 25L33.6 26.5C33.4 26.6 33.1 26.7 32.8 26.7C32.5 26.8 32.2 26.8 31.8 26.8C31.3 26.8 30.8 26.7 30.5 26.6C30.2 26.5 29.9 26.3 29.7 26C29.5 25.7 29.4 25.4 29.3 25.1C29.2 24.7 29.2 24.3 29.2 23.9V18.2H29.1Z" fill="white"></path>
<path d="M40.9 23.2C40.9 23.7 40.8 24.2 40.7 24.7C40.5 25.1 40.3 25.5 40 25.8C39.7 26.1 39.4 26.4 39 26.5C38.6 26.7 38.1 26.8 37.6 26.8C37.1 26.8 36.7 26.7 36.2 26.5C35.8 26.3 35.4 26.1 35.2 25.8C34.9 25.5 34.7 25.1 34.5 24.7C34.3 24.3 34.3 23.8 34.3 23.2C34.3 22.7 34.4 22.2 34.5 21.8C34.7 21.4 34.9 21 35.2 20.7C35.5 20.4 35.8 20.2 36.3 20C36.7 19.8 37.1 19.7 37.6 19.7C38.1 19.7 38.5 19.8 38.9 20C39.3 20.2 39.7 20.4 39.9 20.7C40.2 21 40.4 21.4 40.6 21.8C40.8 22.2 40.9 22.7 40.9 23.2ZM38.9 23.2C38.9 22.6 38.8 22.1 38.5 21.8C38.3 21.5 37.9 21.3 37.5 21.3C37.1 21.3 36.7 21.5 36.5 21.8C36.3 22.1 36.1 22.6 36.1 23.2C36.1 23.8 36.2 24.3 36.5 24.6C36.7 24.9 37.1 25.1 37.5 25.1C37.9 25.1 38.3 24.9 38.5 24.6C38.8 24.3 38.9 23.8 38.9 23.2Z" fill="white"></path>
<path d="M53.8 22.1C53.8 22.9 53.7 23.5 53.4 24.1C53.2 24.7 52.8 25.1 52.4 25.5C52 25.9 51.4 26.2 50.8 26.3C50.2 26.5 49.5 26.6 48.7 26.6C48.3 26.6 47.9 26.6 47.4 26.6C46.9 26.6 46.5 26.5 46 26.4V17.8C46.5 17.7 46.9 17.7 47.4 17.6C47.9 17.6 48.3 17.6 48.7 17.6C49.5 17.6 50.1 17.7 50.8 17.9C51.4 18.1 52 18.3 52.4 18.7C52.8 19.1 53.2 19.5 53.4 20.1C53.7 20.7 53.8 21.3 53.8 22.1ZM48 25C48.1 25 48.2 25 48.3 25C48.4 25 48.6 25 48.7 25C49.7 25 50.4 24.7 50.9 24.2C51.4 23.7 51.6 23 51.6 22.1C51.6 21.2 51.4 20.5 50.9 20C50.4 19.5 49.7 19.3 48.7 19.3C48.6 19.3 48.4 19.3 48.3 19.3C48.2 19.3 48 19.3 47.9 19.3V25H48Z" fill="#020002"></path>
<path d="M55 23.3C55 22.7 55.1 22.2 55.3 21.7C55.5 21.3 55.7 20.9 56 20.6C56.3 20.3 56.6 20.1 57 19.9C57.4 19.7 57.8 19.7 58.2 19.7C59.2 19.7 59.9 20 60.5 20.6C61.1 21.2 61.3 22 61.3 23.2C61.3 23.3 61.3 23.4 61.3 23.6C61.3 23.7 61.3 23.8 61.3 24H57C57 24.4 57.2 24.7 57.6 24.9C57.9 25.1 58.4 25.2 58.9 25.2C59.3 25.2 59.6 25.2 59.9 25.1C60.2 25 60.5 25 60.7 24.9L61 26.4C60.9 26.5 60.8 26.5 60.6 26.6C60.4 26.7 60.2 26.7 60 26.7C59.8 26.7 59.6 26.8 59.3 26.8C59.1 26.8 58.8 26.8 58.6 26.8C58 26.8 57.5 26.7 57 26.5C56.6 26.3 56.2 26.1 55.9 25.8C55.6 25.5 55.4 25.1 55.2 24.7C55.1 24.2 55 23.8 55 23.3ZM59.5 22.5C59.5 22.3 59.5 22.2 59.4 22C59.4 21.8 59.3 21.7 59.2 21.6C59.1 21.5 59 21.4 58.8 21.3C58.7 21.2 58.5 21.2 58.2 21.2C58 21.2 57.8 21.2 57.6 21.3C57.4 21.4 57.3 21.5 57.2 21.6C57.1 21.7 57 21.9 57 22C57 22.2 57 22.4 57 22.5H59.5Z" fill="#020002"></path>
<path d="M62.7 18.2L64.6 17.9V19.9H66.9V21.5H64.6V23.9C64.6 24.3 64.7 24.6 64.8 24.9C64.9 25.1 65.2 25.3 65.7 25.3C65.9 25.3 66.1 25.3 66.3 25.2C66.5 25.2 66.7 25.1 66.9 25L67.2 26.5C67 26.6 66.7 26.7 66.4 26.7C66.1 26.8 65.8 26.8 65.4 26.8C64.9 26.8 64.4 26.7 64.1 26.6C63.8 26.5 63.5 26.3 63.3 26C63.1 25.7 63 25.4 62.9 25.1C62.8 24.7 62.8 24.3 62.8 23.9V18.2H62.7Z" fill="#020002"></path>
<path d="M70.6 19.7C71.2 19.7 71.6 19.8 72 19.9C72.4 20 72.7 20.2 72.9 20.5C73.1 20.7 73.3 21 73.4 21.4C73.5 21.7 73.5 22.1 73.5 22.5V26.5C73.2 26.6 72.8 26.6 72.4 26.7C72 26.8 71.3 26.8 70.6 26.8C70.2 26.8 69.8 26.8 69.4 26.7C69 26.6 68.7 26.5 68.5 26.3C68.3 26.1 68 25.9 67.9 25.6C67.8 25.3 67.7 25 67.7 24.6C67.7 24.2 67.8 23.9 67.9 23.6C68.1 23.3 68.3 23.1 68.5 22.9C68.8 22.7 69.1 22.6 69.4 22.5C69.7 22.4 70.1 22.4 70.5 22.4C70.7 22.4 71 22.4 71.2 22.4C71.4 22.4 71.5 22.4 71.7 22.5V22.3C71.7 22 71.6 21.7 71.4 21.5C71.2 21.3 70.9 21.2 70.4 21.2C70.1 21.2 69.8 21.2 69.4 21.3C69.1 21.3 68.8 21.4 68.6 21.5L68.4 20C68.5 20 68.6 19.9 68.8 19.9C69 19.9 69.1 19.8 69.3 19.8C69.5 19.8 69.7 19.7 69.9 19.7C70.2 19.7 70.4 19.7 70.6 19.7ZM70.8 25.3C71 25.3 71.2 25.3 71.3 25.3C71.5 25.3 71.6 25.3 71.7 25.3V23.9C71.6 23.9 71.5 23.9 71.4 23.8C71.2 23.8 71.1 23.8 71 23.8C70.8 23.8 70.7 23.8 70.5 23.8C70.3 23.8 70.2 23.9 70.1 23.9C70 24 69.9 24 69.8 24.1C69.7 24.2 69.7 24.3 69.7 24.5C69.7 24.8 69.8 25 70 25.1C70.2 25.2 70.4 25.3 70.8 25.3Z" fill="#020002"></path>
<path d="M77.4 17.9C77.4 18.3 77.3 18.5 77.1 18.7C76.9 18.9 76.6 19 76.3 19C76 19 75.7 18.9 75.5 18.7C75.3 18.5 75.2 18.2 75.2 17.9C75.2 17.5 75.3 17.3 75.5 17.1C75.7 16.9 76 16.8 76.3 16.8C76.6 16.8 76.9 16.9 77.1 17.1C77.3 17.3 77.4 17.6 77.4 17.9ZM77.2 26.6H75.3V19.9H77.2V26.6Z" fill="#020002"></path>
<path d="M81.7 26.7C81.1 26.7 80.7 26.6 80.3 26.5C79.9 26.4 79.7 26.2 79.5 26C79.3 25.8 79.2 25.6 79.1 25.3C79 25 79 24.7 79 24.3V17L80.9 16.7V24C80.9 24.2 80.9 24.3 80.9 24.5C80.9 24.6 81 24.8 81 24.8C81.1 24.9 81.2 25 81.3 25C81.4 25.1 81.6 25.1 81.9 25.1L81.7 26.7Z" fill="#020002"></path>
</svg>