<svg version="1.1" id="katman_1" xmlns="http://www.w3.org/2000/svg" xmlns:xlink="http://www.w3.org/1999/xlink" x="0px" y="0px" viewBox="366 -242.3 841.9 595.3" style="enable-background:new 366 -242.3 841.9 595.3;" xml:space="preserve">
 <style type="text/css">
  .st0{fill:#404145;}
	.st1{fill:#1DBF73;}
 </style>
 <g>
  <g id="fiverr_logo_nav">
   <path class="st0" d="M1047.7,52.8h-21.8c-14.1,0-21.8,10.5-21.8,28.8v65.4H962V52.8h-17.6c-14.1,0-21.8,10.5-21.8,28.8v65.4h-42.2
			V17.6h42.2v19.7c7-15.5,16.2-19.7,30.2-19.7h51.3v19.7c7-15.5,16.2-19.7,30.2-19.7h14.1L1047.7,52.8z M870.6,92.1h-87.2
			c2.1,14.8,11.2,22.5,26,22.5c11.2,0,19-4.9,21.8-12.6l37.2,10.5c-9.1,22.5-31.6,35.8-59,35.8c-45.7,0-66.8-35.8-66.8-66.8
			c0-30.2,18.3-66.1,64-66.1c48.5,0,64.7,36.5,64.7,64C871.3,85.8,871.3,89.3,870.6,92.1z M830.6,67.5c-0.7-11.2-9.1-21.1-23.2-21.1
			c-13.3,0-21.1,5.6-23.9,21.1H830.6z M669.6,146.9h36.5l46.4-128.6h-42.2l-22.5,75.2l-22.5-75.9h-42.2L669.6,146.9z M498.2,146.9
			h41.5V52.8h40.1v94.2h41.5V17.6h-81.5V9.9c0-8.4,6.3-14.1,15.5-14.1h24.6v-35.1h-30.9c-30.2,0-50.6,19-50.6,46.4v10.5h-23.9v35.1
			h23.9V146.9z">
   </path>
  </g>
  <g id="fiverr_logo_nav_dot">
   <path class="st1" d="M1073.7,150.4c14.1,0,26-12,26-26c0-14.1-11.9-26-26-26c-14.1,0-26,12-26,26
			C1047.7,138.5,1059.7,150.4,1073.7,150.4z">
   </path>
  </g>
 </g>
</svg>