<svg xmlns="http://www.w3.org/2000/svg" xmlns:xlink="http://www.w3.org/1999/xlink" width="500" zoomAndPan="magnify" viewBox="0 0 375 374.999991" height="500" preserveAspectRatio="xMidYMid meet" version="1.0"><path fill="#a6a6a6" d="M 187.5 55.390625 C 177.296875 55.390625 168.996094 47.089844 168.996094 36.886719 C 168.996094 26.683594 177.296875 18.382812 187.5 18.382812 C 197.703125 18.382812 206.003906 26.683594 206.003906 36.886719 C 206.003906 47.089844 197.710938 55.390625 187.5 55.390625 Z M 187.5 26.898438 C 181.996094 26.898438 177.519531 31.378906 177.519531 36.878906 C 177.519531 42.375 182.003906 46.859375 187.5 46.859375 C 193.003906 46.859375 197.480469 42.375 197.480469 36.878906 C 197.480469 31.378906 193.003906 26.898438 187.5 26.898438 Z M 187.5 26.898438 " fill-opacity="1" fill-rule="nonzero"/><path fill="#a6a6a6" d="M 213.699219 77.292969 C 211.671875 77.292969 209.878906 75.84375 209.503906 73.78125 C 207.605469 63.121094 198.347656 55.390625 187.5 55.390625 C 176.660156 55.390625 167.402344 63.128906 165.484375 73.78125 C 165.066406 76.097656 162.851562 77.640625 160.542969 77.222656 C 158.222656 76.808594 156.683594 74.589844 157.097656 72.28125 C 159.742188 57.554688 172.527344 46.875 187.5 46.875 C 202.484375 46.875 215.265625 57.5625 217.890625 72.296875 C 218.308594 74.617188 216.757812 76.832031 214.449219 77.242188 C 214.203125 77.277344 213.945312 77.292969 213.699219 77.292969 Z M 213.699219 77.292969 " fill-opacity="1" fill-rule="nonzero"/><path fill="#a6a6a6" d="M 187.5 87.28125 C 163.441406 87.28125 143.855469 67.703125 143.855469 43.636719 C 143.855469 19.566406 163.441406 0 187.5 0 C 211.566406 0 231.144531 19.578125 231.144531 43.644531 C 231.144531 67.714844 211.566406 87.28125 187.5 87.28125 Z M 187.5 8.523438 C 168.136719 8.523438 152.378906 24.273438 152.378906 43.644531 C 152.378906 63.015625 168.128906 78.765625 187.5 78.765625 C 206.871094 78.765625 222.621094 63.015625 222.621094 43.644531 C 222.621094 24.273438 206.863281 8.523438 187.5 8.523438 Z M 187.5 8.523438 " fill-opacity="1" fill-rule="nonzero"/><path fill="#a6a6a6" d="M 43.644531 199.246094 C 33.441406 199.246094 25.140625 190.941406 25.140625 180.742188 C 25.140625 170.539062 33.441406 162.238281 43.644531 162.238281 C 53.847656 162.238281 62.148438 170.539062 62.148438 180.742188 C 62.148438 190.941406 53.847656 199.246094 43.644531 199.246094 Z M 43.644531 170.753906 C 38.140625 170.753906 33.664062 175.234375 33.664062 180.734375 C 33.664062 186.230469 38.148438 190.714844 43.644531 190.714844 C 49.140625 190.714844 53.625 186.230469 53.625 180.734375 C 53.625 175.234375 49.152344 170.753906 43.644531 170.753906 Z M 43.644531 170.753906 " fill-opacity="1" fill-rule="nonzero"/><path fill="#a6a6a6" d="M 69.835938 221.15625 C 67.808594 221.15625 66.015625 219.707031 65.640625 217.644531 C 63.742188 206.984375 54.484375 199.253906 43.636719 199.253906 C 32.796875 199.253906 23.539062 206.992188 21.621094 217.644531 C 21.203125 219.964844 18.988281 221.496094 16.679688 221.089844 C 14.359375 220.671875 12.816406 218.453125 13.234375 216.144531 C 15.878906 201.417969 28.660156 190.738281 43.636719 190.738281 C 58.621094 190.738281 71.402344 201.425781 74.027344 216.160156 C 74.4375 218.480469 72.894531 220.695312 70.585938 221.105469 C 70.339844 221.128906 70.089844 221.15625 69.835938 221.15625 Z M 69.835938 221.15625 " fill-opacity="1" fill-rule="nonzero"/><path fill="#a6a6a6" d="M 43.644531 231.144531 C 19.578125 231.144531 0 211.566406 0 187.5 C 0 163.441406 19.578125 143.855469 43.644531 143.855469 C 67.714844 143.855469 87.289062 163.433594 87.289062 187.5 C 87.28125 211.566406 67.703125 231.144531 43.644531 231.144531 Z M 43.644531 152.378906 C 24.273438 152.378906 8.523438 168.136719 8.523438 187.5 C 8.523438 206.863281 24.273438 222.621094 43.644531 222.621094 C 63.015625 222.621094 78.765625 206.863281 78.765625 187.5 C 78.765625 168.136719 63.007812 152.378906 43.644531 152.378906 Z M 43.644531 152.378906 " fill-opacity="1" fill-rule="nonzero"/><path fill="#a6a6a6" d="M 187.5 343.109375 C 177.296875 343.109375 168.996094 334.808594 168.996094 324.605469 C 168.996094 314.402344 177.296875 306.101562 187.5 306.101562 C 197.703125 306.101562 206.003906 314.402344 206.003906 324.605469 C 206.003906 334.808594 197.710938 343.109375 187.5 343.109375 Z M 187.5 314.617188 C 181.996094 314.617188 177.519531 319.089844 177.519531 324.597656 C 177.519531 330.101562 182.003906 334.578125 187.5 334.578125 C 193.003906 334.578125 197.480469 330.101562 197.480469 324.597656 C 197.480469 319.089844 193.003906 314.617188 187.5 314.617188 Z M 187.5 314.617188 " fill-opacity="1" fill-rule="nonzero"/><path fill="#a6a6a6" d="M 213.699219 365.011719 C 211.671875 365.011719 209.878906 363.5625 209.503906 361.5 C 207.605469 350.847656 198.347656 343.109375 187.5 343.109375 C 176.660156 343.109375 167.402344 350.847656 165.484375 361.5 C 165.066406 363.816406 162.851562 365.359375 160.542969 364.941406 C 158.222656 364.527344 156.683594 362.308594 157.097656 360 C 159.742188 345.28125 172.527344 334.59375 187.5 334.59375 C 202.484375 334.59375 215.265625 345.28125 217.890625 360.015625 C 218.308594 362.335938 216.757812 364.550781 214.449219 364.960938 C 214.203125 364.996094 213.945312 365.011719 213.699219 365.011719 Z M 213.699219 365.011719 " fill-opacity="1" fill-rule="nonzero"/><path fill="#a6a6a6" d="M 187.5 375 C 163.441406 375 143.855469 355.421875 143.855469 331.355469 C 143.855469 307.296875 163.433594 287.710938 187.5 287.710938 C 211.566406 287.710938 231.144531 307.285156 231.144531 331.355469 C 231.144531 355.421875 211.566406 375 187.5 375 Z M 187.5 296.242188 C 168.136719 296.242188 152.378906 311.992188 152.378906 331.363281 C 152.378906 350.734375 168.136719 366.476562 187.5 366.476562 C 206.863281 366.476562 222.621094 350.71875 222.621094 331.355469 C 222.621094 311.992188 206.863281 296.242188 187.5 296.242188 Z M 187.5 296.242188 " fill-opacity="1" fill-rule="nonzero"/><path fill="#a6a6a6" d="M 331.363281 199.246094 C 321.160156 199.246094 312.859375 190.941406 312.859375 180.742188 C 312.859375 170.539062 321.160156 162.238281 331.363281 162.238281 C 341.566406 162.238281 349.867188 170.539062 349.867188 180.742188 C 349.867188 190.941406 341.566406 199.246094 331.363281 199.246094 Z M 331.363281 170.753906 C 325.859375 170.753906 321.382812 175.234375 321.382812 180.734375 C 321.382812 186.230469 325.859375 190.714844 331.363281 190.714844 C 336.871094 190.714844 341.34375 186.230469 341.34375 180.734375 C 341.34375 175.234375 336.871094 170.753906 331.363281 170.753906 Z M 331.363281 170.753906 " fill-opacity="1" fill-rule="nonzero"/><path fill="#a6a6a6" d="M 357.554688 221.15625 C 355.527344 221.15625 353.734375 219.707031 353.359375 217.644531 C 351.460938 206.984375 342.203125 199.253906 331.355469 199.253906 C 320.515625 199.253906 311.257812 206.992188 309.339844 217.644531 C 308.921875 219.964844 306.714844 221.503906 304.398438 221.089844 C 302.078125 220.671875 300.535156 218.453125 300.953125 216.144531 C 303.597656 201.417969 316.378906 190.738281 331.355469 190.738281 C 346.339844 190.738281 359.121094 201.425781 361.746094 216.160156 C 362.164062 218.480469 360.613281 220.695312 358.304688 221.105469 C 358.058594 221.128906 357.800781 221.15625 357.554688 221.15625 Z M 357.554688 221.15625 " fill-opacity="1" fill-rule="nonzero"/><path fill="#a6a6a6" d="M 331.355469 231.144531 C 307.296875 231.144531 287.710938 211.566406 287.710938 187.5 C 287.710938 163.441406 307.285156 143.855469 331.355469 143.855469 C 355.421875 143.855469 375 163.433594 375 187.5 C 375 211.566406 355.421875 231.144531 331.355469 231.144531 Z M 331.355469 152.378906 C 311.992188 152.378906 296.234375 168.128906 296.234375 187.5 C 296.234375 206.871094 311.984375 222.621094 331.355469 222.621094 C 350.726562 222.621094 366.476562 206.863281 366.476562 187.5 C 366.476562 168.136719 350.71875 152.378906 331.355469 152.378906 Z M 331.355469 152.378906 " fill-opacity="1" fill-rule="nonzero"/><path fill="#a6a6a6" d="M 60.589844 131.378906 C 59.941406 131.378906 59.277344 131.222656 58.652344 130.910156 C 56.558594 129.84375 55.722656 127.277344 56.785156 125.183594 C 71.992188 95.335938 97.203125 71.378906 127.78125 57.714844 C 128.328125 57.46875 128.921875 57.339844 129.519531 57.339844 C 131.871094 57.339844 133.78125 59.25 133.78125 61.601562 C 133.78125 63.402344 132.664062 64.941406 131.089844 65.566406 C 102.359375 78.453125 78.671875 100.984375 64.378906 129.042969 C 63.628906 130.535156 62.140625 131.378906 60.589844 131.378906 Z M 60.589844 131.378906 " fill-opacity="1" fill-rule="nonzero"/><path fill="#a6a6a6" d="M 314.394531 131.335938 C 312.671875 131.335938 311.183594 130.3125 310.515625 128.839844 C 296.128906 100.730469 272.351562 78.222656 243.554688 65.421875 C 242.011719 64.78125 240.921875 63.253906 240.921875 61.484375 C 240.921875 59.128906 242.820312 57.222656 245.183594 57.222656 L 245.191406 57.222656 C 245.785156 57.222656 246.375 57.347656 246.921875 57.589844 C 277.601562 71.199219 302.921875 95.183594 318.203125 125.128906 C 318.511719 125.726562 318.671875 126.390625 318.671875 127.066406 C 318.65625 129.417969 316.746094 131.335938 314.394531 131.335938 Z M 314.394531 131.335938 " fill-opacity="1" fill-rule="nonzero"/><path fill="#a6a6a6" d="M 125.011719 323.871094 C 124.363281 323.871094 123.714844 323.726562 123.128906 323.4375 C 93.308594 308.847656 69.078125 284.292969 54.894531 254.292969 C 53.890625 252.160156 54.800781 249.621094 56.921875 248.617188 C 59.054688 247.609375 61.59375 248.523438 62.597656 250.644531 C 75.945312 278.871094 98.734375 301.984375 126.785156 315.734375 C 128.25 316.40625 129.273438 317.890625 129.273438 319.609375 C 129.265625 321.972656 127.363281 323.871094 125.011719 323.871094 Z M 125.011719 323.871094 " fill-opacity="1" fill-rule="nonzero"/><path fill="#a6a6a6" d="M 254.746094 321.453125 C 253.226562 321.453125 251.753906 320.632812 250.984375 319.203125 C 249.871094 317.128906 250.652344 314.546875 252.722656 313.433594 C 280.398438 298.585938 302.394531 274.507812 314.660156 245.660156 C 315.578125 243.496094 318.078125 242.488281 320.25 243.402344 C 322.414062 244.320312 323.429688 246.828125 322.507812 248.992188 C 309.484375 279.621094 286.140625 305.183594 256.765625 320.941406 C 256.109375 321.289062 255.417969 321.453125 254.746094 321.453125 Z M 254.746094 321.453125 " fill-opacity="1" fill-rule="nonzero"/><path fill="#a6a6a6" d="M 314.394531 131.328125 C 313.996094 131.328125 313.585938 131.265625 313.183594 131.148438 L 294.402344 125.609375 C 292.140625 124.941406 290.855469 122.574219 291.519531 120.316406 C 292.183594 118.058594 294.554688 116.769531 296.8125 117.433594 L 311.941406 121.902344 L 317.617188 108.46875 C 318.535156 106.304688 321.035156 105.289062 323.199219 106.203125 C 325.363281 107.121094 326.378906 109.621094 325.464844 111.785156 L 318.308594 128.71875 C 317.640625 130.339844 316.074219 131.328125 314.394531 131.328125 Z M 314.394531 131.328125 " fill-opacity="1" fill-rule="nonzero"/><path fill="#a6a6a6" d="M 122.941406 83.140625 C 122.4375 83.140625 121.925781 83.046875 121.421875 82.859375 C 119.222656 82.023438 118.125 79.558594 118.960938 77.359375 L 124.066406 63.980469 L 111.246094 58.730469 C 109.066406 57.835938 108.027344 55.347656 108.921875 53.171875 C 109.816406 50.992188 112.296875 49.953125 114.476562 50.847656 L 131.148438 57.671875 C 133.285156 58.550781 134.335938 60.972656 133.515625 63.136719 L 126.929688 80.402344 C 126.273438 82.089844 124.660156 83.140625 122.941406 83.140625 Z M 122.941406 83.140625 " fill-opacity="1" fill-rule="nonzero"/><path fill="#a6a6a6" d="M 52.269531 273.828125 C 51.765625 273.828125 51.253906 273.742188 50.761719 273.546875 C 48.5625 272.710938 47.453125 270.253906 48.28125 268.046875 L 54.75 250.960938 C 55.578125 248.777344 58.003906 247.660156 60.195312 248.464844 L 78.050781 254.972656 C 80.257812 255.785156 81.402344 258.230469 80.597656 260.4375 C 79.789062 262.644531 77.34375 263.785156 75.136719 262.984375 L 61.234375 257.921875 L 56.257812 271.074219 C 55.609375 272.777344 53.992188 273.828125 52.269531 273.828125 Z M 52.269531 273.828125 " fill-opacity="1" fill-rule="nonzero"/><path fill="#a6a6a6" d="M 271.808594 326.847656 C 271.378906 326.847656 270.945312 326.777344 270.519531 326.652344 L 253.449219 321.253906 C 251.386719 320.609375 250.140625 318.519531 250.550781 316.398438 L 253.984375 298.355469 C 254.429688 296.046875 256.652344 294.527344 258.972656 294.964844 C 261.28125 295.40625 262.796875 297.628906 262.363281 299.949219 L 259.636719 314.265625 L 273.09375 318.519531 C 275.335938 319.226562 276.578125 321.621094 275.871094 323.871094 C 275.292969 325.6875 273.613281 326.847656 271.808594 326.847656 Z M 271.808594 326.847656 " fill-opacity="1" fill-rule="nonzero"/><path fill="#a6a6a6" d="M 138.945312 220.558594 C 138.332031 220.558594 137.71875 220.421875 137.140625 220.160156 C 135.640625 219.460938 134.683594 217.953125 134.683594 216.296875 L 134.683594 200.878906 C 119.0625 198.792969 106.976562 185.378906 106.976562 169.191406 C 106.976562 151.558594 121.320312 137.222656 138.945312 137.222656 L 186.75 137.222656 C 204.382812 137.222656 218.71875 151.566406 218.71875 169.191406 C 218.71875 186.816406 204.375 201.160156 186.75 201.160156 L 163.746094 201.160156 L 141.683594 219.570312 C 140.898438 220.21875 139.925781 220.558594 138.945312 220.558594 Z M 138.945312 145.738281 C 126.015625 145.738281 115.5 156.253906 115.5 169.183594 C 115.5 182.113281 126.015625 192.628906 138.945312 192.628906 C 141.296875 192.628906 143.207031 194.539062 143.207031 196.890625 L 143.207031 207.1875 L 159.46875 193.621094 C 160.234375 192.980469 161.199219 192.628906 162.195312 192.628906 L 186.75 192.628906 C 199.679688 192.628906 210.195312 182.113281 210.195312 169.183594 C 210.195312 156.253906 199.679688 145.738281 186.75 145.738281 Z M 138.945312 145.738281 " fill-opacity="1" fill-rule="nonzero"/><path fill="#a6a6a6" d="M 237.886719 237.785156 C 236.90625 237.785156 235.933594 237.441406 235.160156 236.796875 L 214.636719 219.671875 L 193.253906 219.671875 C 179.992188 219.671875 168.121094 210.808594 164.371094 198.109375 C 163.703125 195.851562 164.992188 193.484375 167.25 192.816406 C 169.507812 192.152344 171.878906 193.441406 172.542969 195.699219 C 175.226562 204.792969 183.742188 211.152344 193.253906 211.152344 L 216.179688 211.152344 C 217.175781 211.152344 218.140625 211.5 218.90625 212.140625 L 233.625 224.421875 L 233.625 215.410156 C 233.625 213.058594 235.535156 211.152344 237.886719 211.152344 C 243.664062 211.152344 249.09375 208.902344 253.175781 204.828125 C 257.257812 200.746094 259.5 195.324219 259.5 189.554688 C 259.5 177.640625 249.800781 167.941406 237.886719 167.941406 L 213.902344 167.941406 C 211.550781 167.941406 209.640625 166.03125 209.640625 163.679688 C 209.640625 161.328125 211.550781 159.417969 213.902344 159.417969 L 237.886719 159.417969 C 254.503906 159.417969 268.023438 172.933594 268.023438 189.554688 C 268.023438 197.597656 264.886719 205.167969 259.203125 210.851562 C 254.53125 215.523438 248.582031 218.472656 242.148438 219.382812 L 242.148438 233.523438 C 242.148438 235.175781 241.191406 236.683594 239.691406 237.382812 C 239.121094 237.648438 238.5 237.785156 237.886719 237.785156 Z M 237.886719 237.785156 " fill-opacity="1" fill-rule="nonzero"/><path fill="#a6a6a6" d="M 143.277344 173.445312 C 142.152344 173.445312 141.058594 172.996094 140.265625 172.203125 C 140.070312 172.003906 139.890625 171.785156 139.730469 171.554688 C 139.578125 171.324219 139.449219 171.078125 139.347656 170.820312 C 139.234375 170.558594 139.152344 170.292969 139.097656 170.019531 C 139.039062 169.746094 139.015625 169.464844 139.015625 169.183594 C 139.015625 168.066406 139.472656 166.96875 140.265625 166.175781 C 140.464844 165.980469 140.675781 165.800781 140.914062 165.648438 C 141.144531 165.496094 141.390625 165.359375 141.648438 165.253906 C 141.902344 165.144531 142.167969 165.066406 142.441406 165.007812 C 142.996094 164.898438 143.558594 164.898438 144.109375 165.007812 C 144.382812 165.066406 144.648438 165.144531 144.902344 165.253906 C 145.167969 165.359375 145.414062 165.496094 145.644531 165.648438 C 145.875 165.800781 146.097656 165.980469 146.292969 166.175781 C 147.085938 166.96875 147.535156 168.066406 147.535156 169.183594 C 147.535156 169.464844 147.511719 169.746094 147.453125 170.019531 C 147.402344 170.292969 147.316406 170.558594 147.214844 170.820312 C 147.101562 171.078125 146.972656 171.324219 146.820312 171.554688 C 146.667969 171.785156 146.488281 172.003906 146.292969 172.203125 C 146.097656 172.398438 145.875 172.578125 145.644531 172.730469 C 145.414062 172.882812 145.167969 173.019531 144.902344 173.121094 C 144.648438 173.234375 144.382812 173.308594 144.109375 173.371094 C 143.839844 173.421875 143.558594 173.445312 143.277344 173.445312 Z M 143.277344 173.445312 " fill-opacity="1" fill-rule="nonzero"/><path fill="#a6a6a6" d="M 162.84375 173.445312 C 162.570312 173.445312 162.289062 173.421875 162.015625 173.371094 C 161.746094 173.308594 161.472656 173.234375 161.214844 173.121094 C 160.960938 173.019531 160.714844 172.882812 160.484375 172.730469 C 160.253906 172.578125 160.03125 172.398438 159.835938 172.203125 C 159.640625 172.003906 159.460938 171.785156 159.308594 171.554688 C 159.152344 171.324219 159.015625 171.078125 158.914062 170.820312 C 158.804688 170.558594 158.726562 170.292969 158.667969 170.019531 C 158.617188 169.746094 158.582031 169.464844 158.582031 169.183594 C 158.582031 168.066406 159.042969 166.96875 159.835938 166.175781 C 160.03125 165.980469 160.253906 165.800781 160.484375 165.648438 C 160.714844 165.496094 160.960938 165.359375 161.214844 165.253906 C 161.472656 165.144531 161.746094 165.066406 162.015625 165.007812 C 163.398438 164.734375 164.871094 165.1875 165.859375 166.175781 C 166.652344 166.96875 167.105469 168.066406 167.105469 169.183594 C 167.105469 169.464844 167.078125 169.746094 167.027344 170.019531 C 166.96875 170.292969 166.890625 170.558594 166.78125 170.820312 C 166.679688 171.078125 166.542969 171.324219 166.390625 171.554688 C 166.234375 171.785156 166.058594 172.003906 165.859375 172.203125 C 165.066406 172.996094 163.96875 173.445312 162.84375 173.445312 Z M 162.84375 173.445312 " fill-opacity="1" fill-rule="nonzero"/><path fill="#a6a6a6" d="M 182.421875 173.445312 C 182.140625 173.445312 181.859375 173.421875 181.585938 173.371094 C 181.3125 173.308594 181.046875 173.234375 180.785156 173.121094 C 180.527344 173.019531 180.28125 172.882812 180.050781 172.730469 C 179.820312 172.578125 179.597656 172.398438 179.402344 172.203125 C 178.609375 171.410156 178.160156 170.308594 178.160156 169.183594 C 178.160156 168.910156 178.183594 168.628906 178.246094 168.359375 C 178.296875 168.085938 178.378906 167.8125 178.484375 167.558594 C 178.59375 167.300781 178.722656 167.054688 178.875 166.824219 C 179.027344 166.59375 179.207031 166.371094 179.402344 166.175781 C 179.597656 165.980469 179.820312 165.800781 180.050781 165.648438 C 180.28125 165.496094 180.527344 165.359375 180.785156 165.253906 C 181.046875 165.144531 181.3125 165.066406 181.585938 165.007812 C 182.140625 164.898438 182.703125 164.898438 183.253906 165.007812 C 183.519531 165.066406 183.792969 165.144531 184.046875 165.253906 C 184.304688 165.359375 184.550781 165.496094 184.78125 165.648438 C 185.019531 165.800781 185.234375 165.980469 185.429688 166.175781 C 185.625 166.371094 185.804688 166.59375 185.957031 166.824219 C 186.121094 167.054688 186.246094 167.300781 186.359375 167.558594 C 186.460938 167.8125 186.546875 168.085938 186.597656 168.359375 C 186.65625 168.628906 186.683594 168.910156 186.683594 169.183594 C 186.683594 170.308594 186.222656 171.410156 185.429688 172.203125 C 185.234375 172.398438 185.019531 172.578125 184.78125 172.730469 C 184.550781 172.882812 184.304688 173.019531 184.046875 173.121094 C 183.792969 173.234375 183.519531 173.308594 183.253906 173.371094 C 182.972656 173.421875 182.691406 173.445312 182.421875 173.445312 Z M 182.421875 173.445312 " fill-opacity="1" fill-rule="nonzero"/></svg>